<svg xmlns="http://www.w3.org/2000/svg" xmlns:xlink="http://www.w3.org/1999/xlink" version="1.1" x="0px" y="0px" viewBox="0 0 100 125" style="enable-background:new 0 0 100 100;" xml:space="preserve"><g><path d="M49.5,82.6c18,0,32.6-14.6,32.6-32.6c0-1.1-0.9-2-2-2s-2,0.9-2,2c0,15.8-12.8,28.6-28.6,28.6S20.9,65.8,20.9,50   s12.8-28.6,28.6-28.6c2.3,0,4.5,0.3,6.7,0.8l-4.5,4.4c-0.8,0.8-0.8,2,0,2.8c0.4,0.4,0.9,0.6,1.4,0.6c0.5,0,1-0.2,1.4-0.6l9.3-9.1   l-9.2-10.1c-0.7-0.8-2-0.9-2.8-0.1c-0.8,0.7-0.9,2-0.1,2.8l4.8,5.3c-2.3-0.5-4.6-0.7-6.9-0.7c-18,0-32.6,14.6-32.6,32.6   S31.5,82.6,49.5,82.6z"/></g><text x="0" y="115" fill="#000000" font-size="5px" font-weight="bold" font-family="'Helvetica Neue', Helvetica, Arial-Unicode, Arial, Sans-serif">Created by Viktor Vorobyev</text><text x="0" y="120" fill="#000000" font-size="5px" font-weight="bold" font-family="'Helvetica Neue', Helvetica, Arial-Unicode, Arial, Sans-serif">from the Noun Project</text></svg>